<svg xmlns="http://www.w3.org/2000/svg" width="74.727" height="54.719"><path d="M25.219 50.264c0-2.945 1.835-6.831 5.846-6.831 2.544 0 4.329 1.51 4.329 4.6 0 2.648-1.517 6.682-5.919 6.682-2.862.004-4.256-1.778-4.256-4.451Zm2.568 0c0 1.609.709 2.475 1.957 2.475 2.2 0 3.106-2.92 3.106-4.9 0-1.559-.636-2.425-1.981-2.425-2.128 0-3.082 2.895-3.082 4.85Zm20.522.148c0-3.267 1.932-7 5.675-7a3.039 3.039 0 0 1 2.837 1.312l1.2-5.692h2.4v.025l-2.597 12.469c-.22.99-.44 1.98-.587 2.97h-2.373a11.015 11.015 0 0 1 .22-1.435 3.6 3.6 0 0 1-3.253 1.633c-2.299 0-3.522-1.683-3.522-4.281Zm2.544-.248c0 1.609.66 2.45 1.908 2.45 1.884 0 2.862-1.658 3.3-3.935.391-1.98-.171-3.143-1.908-3.143-2.153.001-3.3 2.526-3.3 4.629ZM43.075 54.5 46.3 39.053h2.446L45.545 54.5Zm-7.167 0 1.59-7.647c.22-1.064.44-2.2.612-3.217h2.373a20.551 20.551 0 0 1-.343 2.079 3.876 3.876 0 0 1 3.645-2.277l-.514 2.524c-1.981.074-3.424 1.312-3.914 3.712l-1 4.826Zm-18.467 0c-.073-2.995-.342-8.761-.293-11.062h-.025c-.856 2.5-3.669 8.117-5.088 11.063H9.393l-.538-14.582H11.4c0 4.529.147 10.37-.024 11.9h.024c.636-1.856 3.865-8.464 5.406-11.9h2.275c.147 2.945.44 9.652.342 11.78h.024c.636-1.881 2.691-6.261 5.063-11.78h2.544L20.082 54.5Zm45.031-22.574c-3.816 0-5.479-1.658-6.188-2.92l1.394-6.385a5.024 5.024 0 0 0 .954 3.168 4.3 4.3 0 0 0 3.522 1.435h.024a5.825 5.825 0 0 0 4.916-2.747 10.776 10.776 0 0 0 1.688-5.865 5.329 5.329 0 0 0-1-3.49 3.946 3.946 0 0 0-3.282-1.337h-.024a6.149 6.149 0 0 0-5.724 3.96l1.348-6.113a8.615 8.615 0 0 1 6.653-2.574h.047c4.794.025 8 3.588 7.925 8.909a15.6 15.6 0 0 1-3.082 9.627 11.157 11.157 0 0 1-9.124 4.331Zm-49.239 0c-3.816 0-5.479-1.658-6.188-2.92l1.394-6.386a5.024 5.024 0 0 0 .954 3.168 4.3 4.3 0 0 0 3.522 1.435h.024a5.756 5.756 0 0 0 4.916-2.747 10.776 10.776 0 0 0 1.688-5.865 5.329 5.329 0 0 0-1-3.49 3.978 3.978 0 0 0-3.278-1.336h-.024a6.149 6.149 0 0 0-5.724 3.96l1.345-6.113a8.615 8.615 0 0 1 6.653-2.574h.049c4.794.025 7.974 3.588 7.925 8.909a15.6 15.6 0 0 1-3.082 9.627 11.157 11.157 0 0 1-9.124 4.331Zm23.629-.126a9.95 9.95 0 0 1-7.262-2.671 9.7 9.7 0 0 1-2.544-6.954 13.985 13.985 0 0 1 3.253-9.107 12.02 12.02 0 0 1 9.417-4.133h.074a9.991 9.991 0 0 1 7.289 2.747 9.869 9.869 0 0 1 2.593 7.078 14.02 14.02 0 0 1-3.058 8.81 12.139 12.139 0 0 1-9.738 4.23Zm-2.349-15.639a10.838 10.838 0 0 0-1.688 5.865A5.783 5.783 0 0 0 34 25.862a4.133 4.133 0 0 0 3.3 1.411h.024a5.668 5.668 0 0 0 4.916-2.8 11.2 11.2 0 0 0 1.59-5.915c.025-3.292-1.59-5.123-4.525-5.123h-.025a5.7 5.7 0 0 0-4.767 2.726Zm14.725 15.171 5.7-26.432h-3.156L52.834 0h8.781l-6.848 31.356ZM0 31.332 5.7 4.9H2.544L3.6 0h8.757L5.5 31.356Z" fill="#fff"/></svg>
